<svg xmlns="http://www.w3.org/2000/svg" width="1024" height="1024" viewBox="0 0 1024 1024" version="1.1"><path d="M 483 309.069 C 448.985 312.770, 413.506 323.939, 375.177 343.011 C 325.582 367.690, 284.514 398.094, 242 441.607 C 217.140 467.051, 176 516.232, 176 520.506 C 176 522.767, 192.955 544.198, 212.782 567 C 231.314 588.312, 267.124 623.705, 286 639.366 C 310.421 659.628, 340.024 679.883, 364 692.736 C 380.885 701.787, 383.127 702.921, 394.029 707.925 C 482.304 748.442, 567.405 743.020, 659.606 691.006 C 685.820 676.217, 711.621 658.066, 739.469 634.822 C 759.918 617.753, 796.349 579.909, 820.523 550.624 C 825.460 544.643, 832.756 535.868, 836.736 531.124 C 840.715 526.381, 843.978 521.718, 843.986 520.763 C 844.002 518.799, 821.845 490.938, 804.290 470.848 C 789.589 454.025, 757.766 421.679, 744 409.567 C 723.269 391.327, 690.038 367.649, 665 353.277 C 626.969 331.445, 586.043 316.471, 548 310.469 C 535.612 308.515, 495.945 307.660, 483 309.069 M 659.377 408.091 C 667.940 422.177, 679.893 446.582, 685.046 460.500 C 695.248 488.055, 696.849 528.690, 689.029 561.616 C 684.734 579.699, 670.293 611.824, 658.589 629.329 L 652.184 638.909 656.342 636.310 C 682.066 620.235, 705.495 601.341, 732.360 575.007 C 750.117 557.601, 782.233 522.923, 782.794 520.550 C 783.194 518.859, 763.889 496.931, 745.016 477.640 C 719.516 451.575, 692.179 428.014, 668.959 412.091 L 656.697 403.681 659.377 408.091 M 350.906 412.287 C 339.348 420.380, 319.969 435.345, 310 443.877 C 291.729 459.513, 257.977 494.101, 242.272 513.283 L 236.719 520.066 240.066 524.283 C 255.580 543.825, 292.364 581.537, 311.538 597.559 C 329.766 612.791, 359.903 634.977, 366.233 637.826 C 366.637 638.007, 364.255 633.841, 360.940 628.567 C 343.852 601.378, 331.994 572.711, 327.408 547.500 C 324.676 532.480, 324.894 501.649, 327.845 485.500 C 332.037 462.564, 343.648 434.587, 357.934 413 C 363.141 405.131, 363.211 405, 362.215 405 C 361.718 405, 356.629 408.279, 350.906 412.287 M 467.233 454.520 C 459.010 458.634, 453.778 463.991, 450.297 471.863 C 447.012 479.291, 447.266 490.941, 450.873 498.300 C 454.026 504.729, 461.877 512.611, 467.732 515.225 C 474.961 518.451, 486.864 518.811, 494.247 516.026 C 501.850 513.158, 510.090 505.585, 513.653 498.190 C 517.318 490.583, 517.608 478.945, 514.312 471.783 C 511.219 465.061, 503.774 457.543, 496.720 454.018 C 491.474 451.397, 489.603 451, 482.475 451 C 475.087 451, 473.567 451.351, 467.233 454.520" stroke="none" fill="#076d99" fill-rule="evenodd"/></svg>