<?xml version="1.0" standalone="no"?>
<!DOCTYPE svg PUBLIC "-//W3C//DTD SVG 20010904//EN"
 "http://www.w3.org/TR/2001/REC-SVG-20010904/DTD/svg10.dtd">
<svg version="1.0" xmlns="http://www.w3.org/2000/svg"
 width="200.000000pt" height="200.000000pt" viewBox="0 0 200.000000 200.000000"
 preserveAspectRatio="xMidYMid meet">

<g transform="translate(0.000000,200.000000) scale(0.100000,-0.100000)"
fill="#000000" stroke="none">
<path d="M828 1505 c-150 -25 -277 -76 -406 -162 -104 -69 -212 -175 -276
-271 l-47 -72 48 -71 c66 -99 178 -208 286 -279 341 -225 799 -223 1141 4 102
68 216 181 281 276 l47 70 -43 63 c-128 187 -296 318 -504 393 -170 60 -356
78 -527 49z m-170 -162 c-67 -131 -83 -203 -68 -296 35 -221 220 -369 442
-354 291 20 470 339 338 599 -17 32 -27 58 -25 58 16 0 158 -78 210 -115 88
-62 215 -202 215 -237 0 -23 -113 -150 -183 -206 -170 -135 -366 -203 -587
-203 -224 0 -421 69 -593 208 -72 58 -177 177 -177 201 0 33 120 169 205 230
48 36 202 121 218 122 5 0 7 -3 5 -7z m511 -59 c39 -32 49 -80 26 -124 -44
-84 -174 -66 -191 27 -18 97 90 161 165 97z"/>
</g>
</svg>
